<?xml version="1.0" encoding="UTF-8" standalone="no"?>
<!-- Generator: Adobe Illustrator 16.0.0, SVG Export Plug-In . SVG Version: 6.00 Build 0)  -->

<svg
   xmlns:dc="http://purl.org/dc/elements/1.1/"
   xmlns:cc="http://creativecommons.org/ns#"
   xmlns:rdf="http://www.w3.org/1999/02/22-rdf-syntax-ns#"
   xmlns:svg="http://www.w3.org/2000/svg"
   xmlns="http://www.w3.org/2000/svg"
   xmlns:sodipodi="http://sodipodi.sourceforge.net/DTD/sodipodi-0.dtd"
   xmlns:inkscape="http://www.inkscape.org/namespaces/inkscape"
   version="1.1"
   id="wide_rectangle"
   x="0px"
   y="0px"
   width="3000"
   height="1460.7986"
   viewBox="0 0 3000 1460.7986"
   enable-background="new 0 0 2100 1008.141"
   xml:space="preserve"
   inkscape:version="0.91 r13725"
   sodipodi:docname="IMDb yellow.svg"><title
     id="title4240">Internet Movie Database</title><metadata
     id="metadata62"><rdf:RDF><cc:Work
         rdf:about=""><dc:format>image/svg+xml</dc:format><dc:type
           rdf:resource="http://purl.org/dc/dcmitype/StillImage" /><dc:title>Internet Movie Database</dc:title></cc:Work></rdf:RDF></metadata><defs
     id="defs60" /><sodipodi:namedview
     pagecolor="#ffffff"
     bordercolor="#666666"
     borderopacity="1"
     objecttolerance="10"
     gridtolerance="10"
     guidetolerance="10"
     inkscape:pageopacity="0"
     inkscape:pageshadow="2"
     inkscape:window-width="1366"
     inkscape:window-height="715"
     id="namedview58"
     showgrid="false"
     showguides="false"
     inkscape:showpageshadow="false"
     fit-margin-top="20"
     fit-margin-right="20"
     fit-margin-bottom="20"
     fit-margin-left="20"
     inkscape:zoom="0.27297297"
     inkscape:cx="1500"
     inkscape:cy="730.39929"
     inkscape:window-x="-8"
     inkscape:window-y="-8"
     inkscape:window-maximized="1"
     inkscape:current-layer="wide_rectangle" /><path
     d="m 120.88,432.65859 c -55.71,0 -100.88,45.08 -100.88,100.7 l 0,805.60001 c 0,55.62 45.17,100.7 100.88,100.7 l 1898.24,0 c 55.71,0 100.88,-45.08 100.88,-100.7 l 0,-805.60001 c 0,-55.62 -45.17,-100.7 -100.88,-100.7 l -1898.24,0 z"
     id="path3"
     inkscape:connector-curvature="0"
     style="clip-rule:evenodd;fill:#ffffff;fill-rule:evenodd" /><g
     id="g4211"
     transform="matrix(1.4095238,0,0,1.4095238,20,19.801257)"><g
       id="g5"><radialGradient
         gradientUnits="userSpaceOnUse"
         r="847.35468"
         cy="541.58502"
         cx="1032.2695"
         id="background_2_"><stop
           id="stop8"
           style="stop-color:#FCF06E"
           offset="0" /><stop
           id="stop10"
           style="stop-color:#DBA506"
           offset="0.99" /></radialGradient><path
         d="m 2100,920.291 0,-833.52 c -5.681,-44.38 -40.28,-79.729 -84.34,-86.63 l -1930.5,0 C 36.91,7.701 0,49.371 0,99.661 L 0,907.4 c 0,55.641 45.19,100.74 100.93,100.74 l 1898.97,0 c 51.36,10e-4 93.76,-38.299 100.1,-87.849 z"
         id="background_1_"
         style="clip-rule:evenodd;fill:url(#background_2_);fill-rule:evenodd"
         inkscape:connector-curvature="0" /><radialGradient
         gradientUnits="userSpaceOnUse"
         gradientTransform="matrix(1,0,0,0.8718,0,1638.7767)"
         r="794.36902"
         cy="-1827.189"
         cx="1041.9995"
         id="highlight_2_"><stop
           id="stop14"
           style="stop-color:#FFFFFF"
           offset="0" /><stop
           id="stop16"
           style="stop-color:#FFFFFF;stop-opacity:0"
           offset="1" /></radialGradient><path
         id="highlight_1_"
         d="m 90,0.5 1920,0 0,352.64099 -1920,0 z"
         style="clip-rule:evenodd;opacity:0.4;fill:url(#highlight_2_);fill-rule:evenodd"
         inkscape:connector-curvature="0" /></g><g
       id="g22"><g
         id="g24"><g
           id="g26"><path
             id="rect28"
             d="m 290,199.14101 158.72,0 0,611 -158.72,0 z"
             style="clip-rule:evenodd;fill-rule:evenodd"
             inkscape:connector-curvature="0" /><g
             id="g30"
             style="opacity:0.3"><path
               d="m 448.72,199.141 0,611 -158.72,0 0,-611 158.72,0 m 14,-14 -14,0 -158.72,0 -14,0 0,14 0,611 0,14 14,0 158.72,0 14,0 0,-14 0,-611 0,-14 0,0 z"
               id="path32"
               inkscape:connector-curvature="0"
               style="fill:#fbfbed" /></g></g><g
           id="g34"><path
             d="m 787.22,199.141 -36.76,285.44 -22.74,-155.22 c -6.63,-49.819 -12.97,-93.229 -19.02,-130.22 l -205.78,0 0,611 139.02,0 0.5,-403.43 58.51,403.43 99.02,0 55.51,-412.41 0.5,412.41 138.58,0 0,-611 -207.34,0 z"
             id="path36"
             inkscape:connector-curvature="0"
             style="clip-rule:evenodd;fill-rule:evenodd" /><g
             id="g38"
             style="opacity:0.3"><path
               d="m 994.56,199.141 0,611 -138.58,0 -0.5,-412.41 -55.51,412.41 -99.02,0 -58.51,-403.43 -0.5,403.43 -139.02,0 0,-611 205.78,0 c 6.05,36.99 12.39,80.4 19.02,130.22 l 22.74,155.22 36.76,-285.44 207.34,0 m 14,-14 -14,0 -207.34,0 -12.313,0 -1.573,12.212 -23.767,184.553 -7.982,-54.481 C 734.97,277.72 728.554,233.799 722.516,196.882 l -1.92,-11.74 -11.896,0 -205.78,0 -14,0 0,14 0,611 0,14 14,0 139.02,0 13.982,0 0.018,-13.982 0.261,-211.021 30.894,213.013 1.739,11.991 12.116,0 99.02,0 12.242,0 1.633,-12.132 27.886,-207.181 0.249,205.33 0.017,13.983 13.983,0 138.58,0 14,0 0,-14 0,-611 0,-14.002 0,0 z"
               id="path40"
               inkscape:connector-curvature="0"
               style="fill:#fbfbed" /></g></g><g
           id="g42"><path
             d="m 1242.77,309.101 c 6.271,3.63 10.291,9.36 12.041,17.13 1.75,7.79 2.64,25.49 2.64,53.11 l 0,236.87 c 0,40.68 -2.64,65.59 -7.91,74.75 -5.271,9.18 -19.32,13.75 -42.13,13.75 l 0,-401.07 c 17.289,0 29.089,1.82 35.359,5.46 z m -1.64,501.04 c 38.021,0 66.479,-2.069 85.38,-6.22 18.891,-4.14 34.75,-11.431 47.61,-21.85 12.84,-10.421 21.84,-24.86 27.01,-43.341 5.16,-18.449 8.229,-55.08 8.229,-109.84 l 0,-214.58 c 0,-57.79 -2.26,-96.54 -5.779,-116.26 -3.53,-19.71 -12.34,-37.61 -26.45,-53.69 -14.1,-16.08 -34.7,-27.63 -61.78,-34.66 -27.069,-7.03 -71.27,-10.56 -148.09,-10.56 l -118.42,0 0,611 192.29,0 z"
             id="path44"
             inkscape:connector-curvature="0"
             style="clip-rule:evenodd;fill-rule:evenodd" /><g
             id="g46"
             style="opacity:0.3"><path
               d="m 1167.26,199.141 c 76.82,0 121.021,3.53 148.09,10.56 27.08,7.03 47.681,18.58 61.78,34.66 14.11,16.08 22.92,33.98 26.45,53.69 3.52,19.72 5.779,58.47 5.779,116.26 l 0,214.58 c 0,54.76 -3.069,91.391 -8.229,109.84 -5.17,18.48 -14.17,32.92 -27.01,43.341 -12.86,10.419 -28.72,17.71 -47.61,21.85 -18.9,4.15 -47.359,6.22 -85.38,6.22 l -192.29,0 0,-611 118.42,0 m 40.15,505.569 c 22.81,0 36.859,-4.57 42.13,-13.75 5.271,-9.16 7.91,-34.07 7.91,-74.75 l 0,-236.87 c 0,-27.62 -0.89,-45.32 -2.64,-53.11 -1.75,-7.77 -5.771,-13.5 -12.041,-17.13 -6.27,-3.64 -18.069,-5.46 -35.359,-5.46 l 0,401.07 m -40.15,-519.57 -118.42,0 -14,0 0,14 0,611 0,14 14,0 192.29,0 c 39.415,0 68.325,-2.141 88.383,-6.545 20.918,-4.584 38.894,-12.876 53.421,-24.646 15.083,-12.242 25.738,-29.212 31.679,-50.447 5.804,-20.751 8.747,-58.976 8.747,-113.611 l 0,-214.58 c 0,-55.685 -2.074,-96.737 -5.997,-118.72 -3.974,-22.187 -13.969,-42.527 -29.71,-60.464 -15.909,-18.144 -39.053,-31.258 -68.785,-38.977 -29.318,-7.615 -76.077,-11.01 -151.608,-11.01 l 0,0 z m 54.15,504.798 0,-371.77 c 9.699,0.837 13.287,2.434 14.33,3.039 1.93,1.117 4.272,3.038 5.412,8.099 0.857,3.814 2.298,15.398 2.298,50.034 l 0,236.87 c 0,53.133 -4.627,65.304 -6.045,67.768 -0.311,0.543 -2.918,4.311 -15.995,5.96 l 0,0 z"
               id="path48"
               inkscape:connector-curvature="0"
               style="fill:#fbfbed" /></g></g><g
           id="g50"><path
             d="m 1669.85,661.881 c 0,29.57 -1.47,48.25 -4.399,56.02 -2.94,7.78 -15.72,11.69 -25.41,11.69 -9.45,0 -15.75,-3.75 -18.95,-11.28 -3.189,-7.52 -4.771,-24.689 -4.771,-51.529 l 0,-161.471 c 0,-27.84 1.4,-45.19 4.21,-52.1 2.801,-6.88 8.921,-10.34 18.36,-10.34 9.68,0 22.671,3.93 25.99,11.83 3.31,7.9 4.97,24.77 4.97,50.59 l 0,156.59 z m -206.43,-462.74 0,611 142.891,0 9.89,-38.93 c 12.92,15.65 27.17,27.39 42.76,35.21 15.58,7.819 38.851,11.72 56.84,11.72 25.09,0 46.75,-6.59 65,-19.75 18.24,-13.17 29.84,-28.74 34.79,-46.68 4.939,-17.95 7.41,-45.221 7.41,-81.86 l 0,-171.42 c 0,-36.89 -0.83,-60.97 -2.471,-72.26 -1.659,-11.29 -6.52,-22.83 -14.619,-34.62 -8.11,-11.78 -19.881,-20.94 -35.341,-27.47 -15.449,-6.54 -33.669,-9.8 -54.689,-9.8 -18.24,0 -41.62,3.63 -57.2,10.83 -15.58,7.2 -29.699,18.13 -42.36,32.78 l 0,-198.75 -152.901,0 z"
             id="path52"
             inkscape:connector-curvature="0"
             style="clip-rule:evenodd;fill-rule:evenodd" /><g
             id="g54"
             style="opacity:0.3"><path
               d="m 1616.319,199.141 0,198.75 c 12.661,-14.65 26.78,-25.58 42.36,-32.78 15.58,-7.2 38.96,-10.83 57.2,-10.83 21.021,0 39.24,3.26 54.689,9.8 15.46,6.53 27.23,15.69 35.341,27.47 8.1,11.79 12.96,23.33 14.619,34.62 1.641,11.29 2.471,35.37 2.471,72.26 l 0,171.42 c 0,36.64 -2.471,63.91 -7.41,81.86 -4.95,17.939 -16.55,33.51 -34.79,46.68 -18.25,13.16 -39.91,19.75 -65,19.75 -17.989,0 -41.26,-3.9 -56.84,-11.72 -15.59,-7.82 -29.84,-19.56 -42.76,-35.21 l -9.89,38.93 -142.889,0 0,-611 152.899,0 m 23.721,530.45 c 9.69,0 22.47,-3.91 25.41,-11.69 2.93,-7.77 4.399,-26.449 4.399,-56.02 l 0,-156.59 c 0,-25.82 -1.66,-42.69 -4.97,-50.59 -3.319,-7.9 -16.311,-11.83 -25.99,-11.83 -9.439,0 -15.56,3.46 -18.36,10.34 -2.81,6.91 -4.21,24.26 -4.21,52.1 l 0,161.471 c 0,26.84 1.581,44.01 4.771,51.529 3.2,7.53 9.5,11.28 18.95,11.28 m -9.721,-544.45 -14,0 -152.899,0 -14,0 0,14 0,611 0,14 14,0 142.891,0 10.888,0 2.682,-10.553 3.696,-14.552 c 9.169,8.122 18.901,14.779 29.106,19.898 19.421,9.747 46.139,13.206 63.117,13.206 27.957,0 52.581,-7.535 73.188,-22.395 20.811,-15.025 34.299,-33.297 40.098,-54.311 5.326,-19.357 7.914,-47.349 7.914,-85.584 l 0,-171.42 c 0,-37.864 -0.855,-62.159 -2.616,-74.273 -1.972,-13.416 -7.668,-27.046 -16.935,-40.535 -9.626,-13.981 -23.563,-24.892 -41.433,-32.439 -17.088,-7.233 -37.324,-10.903 -60.137,-10.903 -16.996,0 -43.713,3.174 -63.073,12.121 -7.811,3.61 -15.319,8.077 -22.487,13.372 l 0,-166.632 0,-14 0,0 z m 9.721,530.45 c -4.895,0 -5.463,-1.339 -6.065,-2.756 -0.854,-2.015 -3.655,-11.317 -3.655,-46.054 l 0,-161.47 c 0,-36.195 2.434,-44.993 3.179,-46.827 0.26,-0.637 0.424,-0.729 0.597,-0.827 0.327,-0.185 1.64,-0.786 4.795,-0.786 6.291,0 11.826,2.321 13.241,3.653 1.232,3.274 3.719,13.748 3.719,44.768 l 0,156.59 c 0,35.31 -2.144,46.825 -3.28,50.443 -1.54,1.235 -6.737,3.266 -12.531,3.266 l 0,0 z"
               id="path56"
               inkscape:connector-curvature="0"
               style="fill:#fbfbed" /></g></g></g></g></g></svg>